<?xml version="1.0" standalone="no"?>
<!DOCTYPE svg PUBLIC "-//W3C//DTD SVG 20010904//EN"
 "http://www.w3.org/TR/2001/REC-SVG-20010904/DTD/svg10.dtd">
<svg version="1.0" xmlns="http://www.w3.org/2000/svg"
 width="512.000000pt" height="512.000000pt" viewBox="0 0 512.000000 512.000000"
 preserveAspectRatio="xMidYMid meet">

<g transform="translate(0.000000,512.000000) scale(0.100000,-0.100000)"
fill="#000000" stroke="none">
<path d="M2395 3121 c-77 -20 -146 -82 -166 -151 -6 -23 -9 -440 -7 -1231 l3
-1196 30 -49 c23 -37 44 -56 84 -77 53 -26 59 -27 221 -27 162 0 168 1 221 28
40 20 61 39 84 76 l30 49 3 1195 c1 763 -1 1207 -8 1230 -13 49 -62 107 -113
135 -38 19 -59 22 -197 24 -85 1 -168 -2 -185 -6z"/>
<path d="M1275 2416 c-59 -27 -77 -46 -104 -106 -20 -44 -21 -62 -21 -889 0
-604 3 -855 11 -882 16 -52 64 -108 113 -130 56 -25 356 -28 414 -3 49 20 90
60 113 109 18 38 19 84 19 900 0 968 4 907 -76 973 -55 45 -88 52 -264 52
-142 0 -159 -2 -205 -24z"/>
<path d="M227 1744 c-60 -19 -131 -87 -147 -141 -8 -26 -10 -194 -8 -555 l3
-516 30 -44 c20 -28 49 -53 85 -71 l55 -28 181 3 c178 3 181 3 222 31 23 15
54 46 69 69 l28 42 3 515 c2 332 -1 528 -7 551 -14 48 -65 106 -114 132 -37
20 -60 23 -197 25 -118 2 -167 -1 -203 -13z"/>
</g>
</svg>
