<svg xmlns="http://www.w3.org/2000/svg" width="512" height="512" viewBox="0 0 512 512" version="1.1"><path d="M 236.748 199.385 C 230.983 201.506, 226.737 205.245, 223.995 210.614 L 221.500 215.500 221.500 336.500 L 221.500 457.500 223.653 461.500 C 226.147 466.135, 229.083 469.010, 234 471.633 C 237.054 473.262, 239.856 473.500, 256 473.500 C 272.144 473.500, 274.946 473.262, 278 471.633 C 282.917 469.010, 285.853 466.135, 288.347 461.500 L 290.500 457.500 290.785 339 C 290.982 257.461, 290.738 219.153, 290.003 216.180 C 288.463 209.946, 284.335 204.282, 279.078 201.192 C 274.651 198.589, 273.940 198.492, 257.500 198.252 C 244.999 198.070, 239.507 198.370, 236.748 199.385 M 127.500 269.341 C 124.750 270.664, 121.286 273.041, 119.803 274.624 C 113.749 281.080, 114 276.937, 114 370.500 C 114 464.065, 113.752 459.966, 119.803 466.342 C 125.668 472.522, 128.972 473.444, 146.584 473.822 C 166.586 474.250, 169.435 473.571, 176.483 466.689 C 180.991 462.288, 181.969 460.658, 182.927 455.957 C 183.726 452.034, 183.975 426.166, 183.778 367.457 C 183.501 284.774, 183.493 284.487, 181.353 280.500 C 178.584 275.341, 175.127 271.658, 170.887 269.348 C 168.029 267.791, 164.765 267.458, 150 267.218 C 133.266 266.947, 132.281 267.040, 127.500 269.341 M 22.640 336.588 C 16.438 338.549, 8.929 345.868, 7.222 351.616 C 5.551 357.246, 5.478 452.526, 7.141 458.078 C 8.662 463.155, 13.253 468.557, 18.347 471.268 C 22.044 473.235, 24.299 473.515, 38.898 473.827 C 57.825 474.231, 61.968 473.431, 68.094 468.188 C 76.197 461.251, 75.956 463.191, 75.956 405 C 75.956 348.035, 76.090 349.309, 69.393 342.603 C 63.582 336.784, 59.056 335.554, 42.500 335.290 C 31.238 335.110, 26.289 335.434, 22.640 336.588" stroke="none" fill="#0c647c" fill-rule="evenodd"/><path d="M 451.137 39.328 C 446.113 41.207, 440.002 46.784, 437.903 51.406 C 436.111 55.353, 436.044 62.696, 436.044 256 C 436.044 448.641, 436.116 456.659, 437.886 460.556 C 440.246 465.751, 446.878 471.426, 452.394 472.970 C 455.223 473.762, 462.339 474.061, 473.102 473.839 C 488.977 473.511, 489.652 473.411, 494.272 470.695 C 496.897 469.152, 500.272 466.035, 501.772 463.768 L 504.500 459.646 504.500 255.909 L 504.500 52.172 501.456 47.836 C 499.781 45.451, 496.406 42.375, 493.956 41 C 489.727 38.627, 488.608 38.489, 472 38.285 C 459.909 38.137, 453.460 38.459, 451.137 39.328 M 341.936 116.750 C 335.177 120.178, 330.532 126.122, 329.057 133.229 C 328.285 136.948, 328.042 185.317, 328.231 297.500 C 328.490 450.706, 328.568 456.638, 330.376 460.276 C 332.943 465.441, 340.073 471.481, 345.349 472.958 C 348.241 473.768, 355.086 474.061, 365.609 473.826 C 383.006 473.438, 386.357 472.495, 392.197 466.342 C 398.399 459.807, 398.001 471.636, 397.990 294.282 L 397.980 132.500 395.598 127.383 C 393.021 121.850, 388.235 117.562, 382.252 115.427 C 379.753 114.535, 373.299 114.073, 362.929 114.044 C 347.882 114.001, 347.176 114.092, 341.936 116.750" stroke="none" fill="#1cd4b3" fill-rule="evenodd"/></svg>